<svg id="noun_Merge_333583" xmlns="http://www.w3.org/2000/svg" width="29.267" height="25.572" viewBox="0 0 29.267 25.572">
  <path id="Path_1" data-name="Path 1" d="M66.192,69.528c.856.734,1.7,1.464,1.9,1.625H61.622a3.793,3.793,0,0,1-2.084-.616,3.129,3.129,0,0,1-.861-.9,4.784,4.784,0,0,1-.616-1.6,5.535,5.535,0,0,1-.1-.987v-.074a6.862,6.862,0,0,0-.642-2.87,4.406,4.406,0,0,0-2.254-2.145,5.054,5.054,0,0,0-1.918-.389c-.109,0-.192,0-.24.009H48.957a3.186,3.186,0,1,0,.092,1.747h3.932l.039,0h0c.018,0,.057,0,.127,0a3.344,3.344,0,0,1,.747.087,2.963,2.963,0,0,1,.738.28A2.6,2.6,0,0,1,55.659,64.7a4.857,4.857,0,0,1,.555,2.311v.035a7.118,7.118,0,0,0,.7,3.015,5.031,5.031,0,0,0,1.634,1.914.092.092,0,0,1,.022.013l-.035.022a4.7,4.7,0,0,0-1.311,1.337,6.194,6.194,0,0,0-.861,2.176,7.545,7.545,0,0,0-.153,1.5c0,.079,0,.131,0,.17a5.167,5.167,0,0,1-.459,2.123,2.627,2.627,0,0,1-1.368,1.311,3.291,3.291,0,0,1-1.236.249.7.7,0,0,1-.109,0h-.018l-.039,0H49a3.2,3.2,0,1,0,.031,1.748h3.88c.052,0,.131.009.245.009a5.074,5.074,0,0,0,1.149-.135,4.656,4.656,0,0,0,1.175-.45,4.372,4.372,0,0,0,1.7-1.673,6.643,6.643,0,0,0,.791-3.146v-.2a5.565,5.565,0,0,1,.537-2.385,3.139,3.139,0,0,1,1.018-1.184,3.654,3.654,0,0,1,1.957-.568.768.768,0,0,1,.1.009H68.1c-.2.17-1.04.9-1.9,1.625-.974.834,0,2.5,0,2.5l5.819-5-5.828-4.985s-.974,1.665,0,2.5ZM46.96,63.634a1.435,1.435,0,1,1,.424-1.018A1.433,1.433,0,0,1,46.96,63.634Zm0,19.2a1.435,1.435,0,1,1,.424-1.018A1.433,1.433,0,0,1,46.96,82.835Z" transform="translate(-42.753 -59.418)" fill="#fff"/>
</svg>
