<svg id="noun_Recycle_1823846" xmlns="http://www.w3.org/2000/svg" width="29.276" height="25.572" viewBox="0 0 29.276 25.572">
  <g id="Layer_2" data-name="Layer 2">
    <path id="Path_2" data-name="Path 2" d="M7.962,22.137a.49.49,0,0,0,.412-.113l2.984-2.039a.493.493,0,1,0-.557-.815L8.84,20.509a11.8,11.8,0,0,1,22.9,1.232.493.493,0,1,0,.97-.181A12.79,12.79,0,0,0,7.831,20.436L6.4,18.341a.493.493,0,1,0-.815.557h0L7.6,21.844a.492.492,0,0,0,.363.292Z" transform="translate(-5.5 -11.13)" fill="#fff"/>
    <path id="Path_3" data-name="Path 3" d="M36.877,55.684A.49.49,0,0,0,36.1,55.5l-2.985,2.039a.493.493,0,1,0,.557.815h0l1.961-1.34a11.8,11.8,0,0,1-22.9-1.232.493.493,0,0,0-.97.181,12.79,12.79,0,0,0,24.877,1.125l1.431,2.094a.493.493,0,1,0,.815-.557Z" transform="translate(-9.7 -40.827)" fill="#fff"/>
  </g>
</svg>
