<svg xmlns:dc="http://purl.org/dc/elements/1.1/" xmlns:cc="http://creativecommons.org/ns#" xmlns:rdf="http://www.w3.org/1999/02/22-rdf-syntax-ns#" xmlns:svg="http://www.w3.org/2000/svg" xmlns="http://www.w3.org/2000/svg" xmlns:sodipodi="http://sodipodi.sourceforge.net/DTD/sodipodi-0.dtd" xmlns:inkscape="http://www.inkscape.org/namespaces/inkscape" version="1.1" x="0px" y="0px" viewBox="0 0 100 125"><g transform="translate(0,-952.36218)"><path style="text-indent:0;text-transform:none;direction:ltr;block-progression:tb;baseline-shift:baseline;color:#000000;enable-background:accumulate;" d="m 91.999999,985.44028 c 0.261599,0 0.508099,0.056 0.75,0.1563 0.2416,0.1002 0.4711,0.2524 0.656199,0.4375 0.1851,0.1851 0.3373,0.4144 0.4375,0.6562 0.1002,0.2419 0.156301,0.4883 0.156301,0.75 l 0,29.84382 c 0,0.2617 -0.0561,0.5394 -0.156301,0.7812 -0.1002,0.2418 -0.2524,0.44 -0.4375,0.625 -0.1851,0.1851 -0.414599,0.3373 -0.656199,0.4375 -0.241901,0.1002 -0.488401,0.1562 -0.75,0.1563 l -29.843797,0 c -0.261701,0 -0.5396,-0.056 -0.7812,-0.1563 -0.2419,-0.1002 -0.4399,-0.2524 -0.625,-0.4375 -0.1852,-0.185 -0.3373,-0.3832 -0.437601,-0.625 -0.1002,-0.2418 -0.156199,-0.5195 -0.156199,-0.7812 l 0,-12.9063 -20.468801,0 c -0.9938,8.3843 -8.135199,14.9063 -16.781199,14.9063 -9.3225,0 -16.9062005,-7.5841 -16.9062005,-16.9063 0,-9.31352 7.5821005,-16.93752 16.9062005,-16.93752 8.646999,0 15.7871,6.5598 16.781199,14.93752 l 20.468801,0 0,-12.93752 c 0,-0.2617 0.0561,-0.5081 0.156199,-0.75 0.1004,-0.2418 0.2524,-0.4711 0.437601,-0.6562 0.1851,-0.1851 0.3831,-0.3373 0.625,-0.4375 0.2416,-0.1002 0.519499,-0.1562 0.7812,-0.1563 l 29.843797,0 z" fill="#000000" fill-opacity="1" fill-rule="evenodd" stroke="none" marker="none" visibility="visible" display="inline" overflow="visible"/></g><text x="0" y="115" fill="#000000" font-size="5px" font-weight="bold" font-family="'Helvetica Neue', Helvetica, Arial-Unicode, Arial, Sans-serif">Created by andriwidodo</text><text x="0" y="120" fill="#000000" font-size="5px" font-weight="bold" font-family="'Helvetica Neue', Helvetica, Arial-Unicode, Arial, Sans-serif">from the Noun Project</text></svg>