<?xml version="1.0" encoding="utf-8"?>
<!-- Generator: Adobe Illustrator 23.0.1, SVG Export Plug-In . SVG Version: 6.00 Build 0)  -->
<svg version="1.1" id="Layer_1" xmlns="http://www.w3.org/2000/svg" xmlns:xlink="http://www.w3.org/1999/xlink" x="0px" y="0px"
	 viewBox="0 0 321.5 168" style="enable-background:new 0 0 321.5 168;" xml:space="preserve">
<style type="text/css">
	.st0{fill:#212121;}
	.st1{fill:url(#SVGID_1_);}
	.st2{fill:url(#SVGID_2_);}
</style>
<g>
	<rect class="st0" width="321.5" height="168"/>
	
		<linearGradient id="SVGID_1_" gradientUnits="userSpaceOnUse" x1="-747.2897" y1="636.7714" x2="-747.2897" y2="635.8137" gradientTransform="matrix(229.15 0 -115.32 -115.32 244756.7656 73471.0859)">
		<stop  offset="0" style="stop-color:#290908;stop-opacity:0"/>
		<stop  offset="0.2" style="stop-color:#290908;stop-opacity:0"/>
		<stop  offset="1" style="stop-color:#290908"/>
	</linearGradient>
	<path class="st1" d="M96.8,103.6L96.8,103.6L96.8,103.6c3.7,1.6,7.2,4,10.5,7.4l0,0l0,0c3.3,3.4,5.4,6.2,6.3,8.6l0,0l0,0
		c0.9,2.4,0.9,4.4-0.1,6.3l0,0l0,0c-2.1,3.9-8.4,5.8-18.8,5.8l0,0l0,0c-10.4,0-21.2-2.8-32.4-8.3l0,0l0,0
		c-11.1-5.5-21.5-13.2-31.2-22.9l0,0l0,0C17.4,86.6,8.9,74.5,5.7,64l0,0l0,0c-2.3-7.8-0.2-13.3,6.1-16.7l0,0l0,0
		c3.4-1.7,7.5-2.5,12.4-2.5l0,0l0,0c4.9,0,9.2,0.3,12.9,1l0,0l0,0c3.7,0.7,7.3,1.7,10.9,3l0,0l0,0c7.9,2.9,14.1,6.7,18.7,11.3l0,0
		l0,0c4.2,4.2,5.9,7.9,5,11.1l0,0l0,0c-0.8,2.8-2.7,4.2-5.7,4.2l0,0l0,0c-2.9,0-5.2-0.2-6.9-0.6l0,0l0,0c-2.6-3-4.9-5.4-6.8-7.4l0,0
		l0,0c-1.9-2-3.6-3.6-5.1-5l0,0l0,0c-1.5-1.4-3.1-2.8-4.8-4.1l0,0l0,0c-3.8-3.1-7-4.6-9.5-4.6l0,0l0,0c-2.5,0-3.8,1.2-4,3.5l0,0l0,0
		c-0.2,2.4,0.7,5.5,2.5,9.5l0,0l0,0c4.1,9,11.4,18.9,22,29.6l0,0l0,0c5.1,5.1,10.5,9.2,16.3,12.1l0,0l0,0c5.8,2.9,11.7,4.4,17.9,4.4
		l0,0l0,0c4.6,0,7.5-1.5,8.8-4.6l0,0l0,0C97,106.9,97.1,105.3,96.8,103.6z M158.1,122.5L158.1,122.5L158.1,122.5
		c3.6,6.2,1.3,9.3-6.8,9.3l0,0l0,0c-4.1,0-8.9-1.4-14.4-4.3l0,0l0,0c-4.5-2.4-8.1-5-10.8-7.7l0,0l0,0c-6.1-6.2-14.5-16.1-25-29.7
		l0,0L63,42.3l22.5-2.5l50.2,62.9l0,0c4.7,6.1,8.1,10.3,10.2,12.4l0,0l0,0C150.5,119.9,154.6,122.3,158.1,122.5z M198,122.5
		L198,122.5L198,122.5c3.6,6.2,1.3,9.3-6.8,9.3l0,0l0,0c-4.2,0-9-1.4-14.5-4.3l0,0l0,0c-4.7-2.6-8.4-5.1-10.9-7.7l0,0l0,0
		c-6.6-6.7-14.9-16.6-24.8-29.7l0,0l-19.3-24.1l22.5-2.5l31.3,39.3l0,0c4.7,6.1,8.1,10.3,10.2,12.4l0,0l0,0
		C190.4,119.9,194.5,122.3,198,122.5z M106.9,48.7L106.9,48.7L106.9,48.7c-3.2-3.2-4.3-5.7-3.4-7.5l0,0l0,0c0.9-1.7,3.3-2.6,7.2-2.6
		l0,0l0,0c3.8,0,7.8,0.9,11.8,2.6l0,0l0,0c4.1,1.7,7.7,4.2,10.9,7.5l0,0l0,0c3.2,3.2,4.3,5.7,3.4,7.3l0,0l0,0
		c-0.9,1.7-3.3,2.5-7.2,2.5l0,0l0,0c-3.8,0-7.8-0.8-11.8-2.5l0,0l0,0C113.8,54.4,110.1,51.9,106.9,48.7z M264,149.1l-14.3-20.1l0,0
		c-0.8,1.9-3.4,2.9-7.7,2.9l0,0l0,0c-4.3,0-8.5-0.5-12.6-1.5l0,0l0,0c-4.1-1-8.2-2.6-12.3-4.7l0,0l0,0c-7.9-4.1-16.6-11.1-26.2-20.7
		l0,0l0,0c-12.1-12.3-18.4-22.2-18.8-29.9l0,0l0,0c-0.5-7.6,5.1-11.4,16.7-11.4l0,0l0,0c4.2,0,8.5,0.7,12.9,2.1l0,0l19.6-2.1
		l46,68.7L264,149.1z M237.7,124.1L237.7,124.1L237.7,124.1c2.5,0,3.5-1.3,2.8-3.9l0,0l0,0c-0.7-2.6-2.8-6.2-6.4-10.6l0,0
		l-29.5-36.4l0,0c-3.2-1.5-5.8-2.2-7.8-2.2l0,0l0,0c-2,0-3.3,0.3-3.8,1l0,0l0,0c-0.5,0.7-0.5,1.7,0.1,3.2l0,0l0,0
		c1.5,3.9,6.8,11.5,16.1,22.7l0,0l0,0c5.6,6.7,11,12.7,16.3,18.1l0,0l0,0C230.7,121.4,234.8,124.1,237.7,124.1z"/>
	
		<linearGradient id="SVGID_2_" gradientUnits="userSpaceOnUse" x1="-744.4182" y1="636.1085" x2="-746.3745" y2="636.5244" gradientTransform="matrix(229.15 0 0 -115.32 170973.9844 73465.4844)">
		<stop  offset="0" style="stop-color:#FFB72E"/>
		<stop  offset="1" style="stop-color:#FF694C"/>
	</linearGradient>
	<path class="st2" d="M112.9,97.9L112.9,97.9L112.9,97.9c2.1,1.6,3.2,4,3.2,7.4l0,0l0,0c0,3.3-0.7,6.2-2.2,8.6l0,0l0,0
		c-1.4,2.4-3.6,4.4-6.4,6.3l0,0l0,0c-6,3.9-14.3,5.8-24.9,5.8l0,0l0,0c-10.5,0-18.7-2.8-24.4-8.2l0,0l0,0
		c-5.7-5.5-8.6-13.1-8.6-22.9l0,0l0,0c0-13.8,3.6-26,10.8-36.4l0,0l0,0c5.5-7.8,13.1-13.3,22.8-16.6l0,0l0,0c5-1.7,10-2.5,15-2.5
		l0,0l0,0c5,0,9,0.3,12,1l0,0l0,0c3.1,0.7,5.7,1.7,8.1,3l0,0l0,0c5,2.9,7.6,6.7,7.6,11.3l0,0l0,0c0,4.2-2,7.9-6,11l0,0l0,0
		c-3.6,2.8-6.9,4.2-9.9,4.2l0,0l0,0c-3,0-5.1-0.2-6.3-0.6l0,0l0,0c0.3-3,0.5-5.4,0.5-7.4l0,0l0,0c0-1.9,0-3.6-0.1-5l0,0l0,0
		c-0.1-1.4-0.3-2.8-0.7-4.1l0,0l0,0c-0.8-3.1-2.5-4.6-5-4.6l0,0l0,0c-2.5,0-5.1,1.2-7.6,3.5l0,0l0,0c-2.5,2.4-4.9,5.5-7,9.5l0,0l0,0
		c-4.9,9-7.3,18.9-7.3,29.5l0,0l0,0c0,5.1,1.4,9.2,4.3,12.1l0,0l0,0c2.9,2.9,7.4,4.4,13.6,4.4l0,0l0,0c4.6,0,9.1-1.5,13.5-4.6l0,0
		l0,0C109.8,101.1,111.5,99.6,112.9,97.9z M156,116.7L156,116.7L156,116.7c-2.6,6.2-7.9,9.3-16.1,9.3l0,0l0,0
		c-4.1,0-7.5-1.4-10.2-4.3l0,0l0,0c-2.1-2.4-3.2-5-3.2-7.7l0,0l0,0c0-6.2,1.4-16.1,4.3-29.6l0,0l9.1-47.6l25.2-2.5l-12,62.7l0,0
		c-1.4,6.1-2.1,10.3-2.1,12.4l0,0l0,0C151,114.1,152.7,116.6,156,116.7z M196.3,116.7L196.3,116.7L196.3,116.7
		c-2.6,6.2-7.9,9.3-16.1,9.3l0,0l0,0c-4.2,0-7.7-1.4-10.3-4.3l0,0l0,0c-2.2-2.6-3.3-5.1-3.3-7.7l0,0l0,0c0-6.7,1.5-16.6,4.6-29.6
		l0,0l4.6-24.1l25.2-2.5L193.4,97l0,0c-1.4,6.1-2.1,10.3-2.1,12.4l0,0l0,0C191.3,114.1,193,116.6,196.3,116.7z M178,43.1L178,43.1
		L178,43.1c0-3.2,1.3-5.7,4-7.4l0,0l0,0c2.7-1.7,6-2.6,9.9-2.6l0,0l0,0c3.9,0,7,0.9,9.4,2.6l0,0l0,0c2.4,1.7,3.5,4.2,3.5,7.4l0,0
		l0,0c0,3.2-1.3,5.7-3.9,7.3l0,0l0,0c-2.6,1.7-5.8,2.5-9.7,2.5l0,0l0,0c-3.9,0-7.1-0.8-9.5-2.5l0,0l0,0
		C179.2,48.7,178,46.3,178,43.1z M236.9,148.3l5.2-25.2l0,0c-2.7,1.9-6.3,2.8-10.6,2.8l0,0l0,0c-4.3,0-8.1-0.5-11.3-1.5l0,0l0,0
		c-3.2-1-5.8-2.6-7.8-4.7l0,0l0,0c-3.8-4.1-5.7-11-5.7-20.7l0,0l0,0c0-12.2,3.6-22.2,10.9-29.9l0,0l0,0c7.1-7.6,16.5-11.4,28.3-11.4
		l0,0l0,0c4.2,0,7.9,0.7,10.9,2.1l0,0l21.9-2.1l-16.9,88L236.9,148.3z M234.8,118.3L234.8,118.3L234.8,118.3c2.6,0,4.8-1.3,6.7-3.9
		l0,0l0,0c1.9-2.6,3.3-6.1,4.1-10.6l0,0l6.6-36.3l0,0c-1.7-1.5-3.6-2.2-5.6-2.2l0,0l0,0c-2,0-3.6,0.3-4.8,1l0,0l0,0
		c-1.2,0.7-2.3,1.7-3.2,3.2l0,0l0,0c-2.4,3.9-4.5,11.4-6.4,22.7l0,0l0,0c-1.1,6.7-1.6,12.7-1.6,18.1l0,0l0,0
		C230.4,115.6,231.9,118.3,234.8,118.3z"/>
</g>
</svg>
