<svg id="connection" xmlns="http://www.w3.org/2000/svg" width="16.531" height="6.358" viewBox="0 0 16.531 6.358">
  <g id="Group_49" data-name="Group 49" transform="translate(0 0)">
    <path id="Path_19" data-name="Path 19" d="M22.156,985.44a.364.364,0,0,1,.141.029.378.378,0,0,1,.205.206.363.363,0,0,1,.029.141v5.606a.393.393,0,0,1-.029.147.361.361,0,0,1-.082.117.385.385,0,0,1-.123.082.363.363,0,0,1-.141.029H16.549a.392.392,0,0,1-.147-.029.412.412,0,0,1-.2-.2.393.393,0,0,1-.029-.147V989H12.328a3.182,3.182,0,1,1,0-.751h3.845v-2.43a.363.363,0,0,1,.029-.141.385.385,0,0,1,.082-.123.361.361,0,0,1,.117-.082.394.394,0,0,1,.147-.029Z" transform="translate(-6 -985.44)" fill="#10e3a2" fill-rule="evenodd"/>
  </g>
</svg>
