<?xml version="1.0" encoding="utf-8"?>
<!-- Generator: Adobe Illustrator 23.0.1, SVG Export Plug-In . SVG Version: 6.00 Build 0)  -->
<svg version="1.1" id="Layer_1" xmlns="http://www.w3.org/2000/svg" xmlns:xlink="http://www.w3.org/1999/xlink" x="0px" y="0px"
	 viewBox="0 0 14 14.2" style="enable-background:new 0 0 14 14.2;" xml:space="preserve">
<style type="text/css">
	.st0{fill-rule:evenodd;clip-rule:evenodd;fill:#212121;}
</style>
<title>close</title>
<desc>Created with Sketch.</desc>
<g>
	<path class="st0" d="M8.4,7l5.3-5.3c0.4-0.4,0.4-1,0-1.4s-1-0.4-1.4,0L7,5.6L1.7,0.3c-0.4-0.4-1-0.4-1.4,0s-0.4,1,0,1.4L5.6,7
		l-5.3,5.3c-0.4,0.4-0.4,1,0,1.4C0.5,13.9,0.7,14,1,14s0.5-0.1,0.7-0.3L7,8.4l5.3,5.3c0.2,0.2,0.5,0.3,0.7,0.3
		c0.3,0,0.5-0.1,0.7-0.3c0.4-0.4,0.4-1,0-1.4L8.4,7"/>
</g>
</svg>
