<svg id="Слой_1" data-name="Слой 1" xmlns="http://www.w3.org/2000/svg" viewBox="0 0 3000 2001.02"><defs><style>.cls-1,.cls-9{fill:#fff;}.cls-2{fill:#ebf3fa;}.cls-3{fill:#f1f7fd;}.cls-4{fill:#dfebfd;}.cls-5{fill:#bde5b3;}.cls-6{fill:#82b378;}.cls-7{fill:#cde0fb;}.cls-8{fill:#afcdfb;}.cls-9{opacity:0.5;}.cls-10{fill:#a8d29f;}.cls-11{fill:#f99746;}.cls-12{fill:#db6f26;}.cls-13{fill:#ffa969;}.cls-14{fill:#ffb27d;}.cls-15{fill:#163560;}.cls-16{fill:#b5453c;}.cls-17{fill:#efdece;}.cls-18{fill:#fcecdb;}.cls-19{fill:#1c468a;}.cls-20{fill:#233862;}.cls-21{fill:#ed975d;}.cls-22{fill:#ed7d2b;}.cls-23{fill:#8fb7ef;}.cls-24{fill:#f9ddbf;}.cls-25{fill:#285ba5;}.cls-26{fill:#77a4e5;}.cls-27{fill:#ffcb9c;}.cls-28{fill:#699dee;}.cls-29{fill:#548ee2;}.cls-30{fill:#f4d2b8;}.cls-31{fill:#568cdb;}.cls-32{fill:#d39e7a;}.cls-33{fill:#efcbab;}.cls-34{fill:#f4a269;}.cls-35{fill:#739af0;}.cls-36{fill:#4a75cb;}.cls-37{fill:#2b478b;}.cls-38{fill:#6bb7bf;}.cls-39{fill:#8ad8db;}.cls-40{fill:#ed9f4a;}.cls-41{fill:#ffb278;}.cls-42{fill:#a2c5f9;}.cls-43{fill:#c7dcf9;}.cls-44{fill:#d2e4f9;}.cls-45{fill:#f8fbff;}</style></defs><title>house</title><rect class="cls-1" width="3000" height="2000"/><path class="cls-2" d="M2801.25,1995.75,1649.4,1996l-252.12.08-83.37,0-251.64.07-944.06,4.46q-.92-3-1.79-5.88c-102.19-339.76,208-335.52,293.67-441.11,30.51-37.58,32.57-89.09-22.54-175-.26-.41-.53-.81-.79-1.23-32.87-51.44-56.79-102-72.61-151.29-33.17-103.33-30.85-201.53-1-292.27C335.74,865.13,374.19,800.61,425,741.4a776.25,776.25,0,0,1,64.78-66.74c468.78-430,1612-511.49,1770.17,239.8,89.7,426,231.57,179.51,523.35,482.12,96.32,99.89,128.82,201.6,129.89,292.18C2915.23,1862.81,2801.25,1995.75,2801.25,1995.75Z" transform="translate(0)"/><path class="cls-3" d="M1402.65,834a449.84,449.84,0,0,1-17.07,74c-15.26,48.36-39.49,101.58-74,160-7.27,12.29-13.43,23.89-18.57,34.91L314.15,1226.18c-33.17-103.33-30.85-201.53-1-292.27L1367.2,650.15a236.31,236.31,0,0,1,35.42,92.94C1407,770.81,1407.22,801.06,1402.65,834Z" transform="translate(0)"/><path class="cls-4" d="M2801.25,1995.75,1649.4,1996l-252.12.08-83.37,0-251.64.07-944.06,4.46q-.92-3-1.79-5.88c-102.19-339.76,208-335.52,293.67-441.11,30.51-37.58,32.57-89.09-22.54-175-.26-.41-.53-.81-.79-1.23,300.85-123.92,299.74-110.63,620.51-57,395.84,66.2,721.66,143.1,883,59.62s509.16-23.22,604.8,97,74.39,239.39,173.58,229.4c70.76-7.12,159.55-41.69,244.51-17.79C2915.23,1862.81,2801.25,1995.75,2801.25,1995.75Z" transform="translate(0)"/><path class="cls-5" d="M942.6,1415.21s-136.71-22.55-229.52,53.69-38,206.48-114.6,223.34c-110.48,24.3-364.57,59.17-338.06,298,2.69,24.16,775.55,0,775.55,0l-33.15-514.58Z" transform="translate(0)"/><path class="cls-6" d="M2058.07,1588.23s163.26-29.84,276.62,63,61.69,169,122.42,188.94,146.58,58.8,127.32,157H2035.77Z" transform="translate(0)"/><path class="cls-6" d="M2731.91,1989.44h-73.77c-3.95-3.35,2.74-11,9.73-11.48,3-.23,6.87.41,11.25,1.33,1-13.48,6.82-74.09,28.66-71.65,24.57,2.72,0,26.69-6.94,40.88-5.15,10.51-10.57,25.58-13.05,32.69,2,.43,4.06.85,6.17,1.24,3.25-10,15.37-43.62,30.77-41.66,18.09,2.29,10.82,15.77-2,23.78-9.41,5.88-21,14.25-26.44,18.29a77.78,77.78,0,0,0,14.42,1.15C2723.35,1983.71,2729.52,1987.44,2731.91,1989.44Z" transform="translate(0)"/><rect class="cls-7" x="942.64" y="133.44" width="1300.24" height="1790.8"/><rect class="cls-8" x="925.49" y="946.77" width="1334.55" height="57.45"/><rect class="cls-9" x="1704.89" y="383.31" width="355.19" height="472.14"/><rect class="cls-4" x="1713.56" y="391.97" width="337.85" height="454.8"/><path class="cls-8" d="M1793.9,387.36V516.89c0,1.14,0,2.25,0,3.33-.22,10.1-1.41,17.87-2.84,17.87h-.41c-1.33,0-2.45-6.69-2.78-15.71,0-.75,0-1.51-.06-2.28,0-.05,0-.11,0-.17,0-1,0-2,0-3V386.77Q1790.84,387,1793.9,387.36Z" transform="translate(0)"/><path class="cls-8" d="M1789.21,521.72c-22.43,0-40.61,19.22-40.61,42.94h81.22C1829.82,540.94,1811.64,521.72,1789.21,521.72Z" transform="translate(0)"/><path class="cls-7" d="M1792.45,522.24a17,17,0,0,0-3.57-.39c-14.61,0-26.46,19.17-26.46,42.81h7.13C1769.55,543,1779.52,525.06,1792.45,522.24Z" transform="translate(0)"/><path class="cls-6" d="M1782.38,707.22s-20-23.33-1.24-38.15c0,0,13.71-8.3,24.89-7.63,0,0-15.84,26.56-10.72,29.2s15.52-30.86,15.52-30.86,31.2-3,41.23,1.8c0,0-26.67,21.82-21,23.12s34.42-20.12,34.42-20.12,29,4.94,27.49,22.65-11.55,23.18-16,22.71-30.12-10.29-30.68-6.68,14.92,15.37,25.77,15.92c0,0-20.47,22.58-34.08,16.06s-14.76-16.84-23.25-20.71-15.72-3.87-12.21.08,18.85,7.79,23.7,16.37,9.2,14.37-4.88,12.25-37-12.42-38-24.21Z" transform="translate(0)"/><path class="cls-6" d="M1878.65,687.71s-78.86-3-96.27,19.51c0,0-3.85,11.54-15.71,22l-1.84,5s13.66-14.41,18.55-15.28C1783.38,719,1775.73,691.08,1878.65,687.71Z" transform="translate(0)"/><path class="cls-6" d="M1766.67,729.26s-16.92,12.52-18.1,34.89l3.07.27s5.41-23.12,15.18-32.17S1766.67,729.26,1766.67,729.26Z" transform="translate(0)"/><path class="cls-10" d="M1731,710l-4.36,9.33-.61,1.33,0,0c-1.87,4-6.59,6.79-12.48,8.51V652.72c4.27,1.85,7.15,3.23,7.15,3.23s-1.78,34.87,3.92,34.16,0-31,0-31c10.67,3.21,20.63,15.65,20.63,15.65C1757.71,695.09,1731,710,1731,710Z" transform="translate(0)"/><path class="cls-6" d="M1738.15,736v5.34l-.27-.61,0-.05c-.22-.54-.46-1-.7-1.56l-.17-.38a1.75,1.75,0,0,1-.13-.28c-.48-1-1.07-2.28-1.72-3.63,0,0,0,0,0-.05-2.67-5.46-6.5-12.58-9.07-14.08l0,0a5.41,5.41,0,0,0,.61-1.33c1.07-3.15,1.85-11.73-13.11-24.72V690c8.63,6.24,15.25,13,17.47,20,0,0-.35,12.07,7.1,26Z" transform="translate(0)"/><path class="cls-6" d="M1738.14,736s11.53,17.49,5,38.79l-3-.79s2.88-23.46-3.15-35.26S1738.14,736,1738.14,736Z" transform="translate(0)"/><path class="cls-10" d="M1763,672s-35.17-19.69-18.76-46.43c0,0,13.13-16.41,27.2-20.63,0,0-7.5,39.86,0,40.8s5.16-45,5.16-45,37-17.82,51.59-16.41c0,0-23,38.92-15.48,38s33.3-40.33,33.3-40.33,38-7,44.08,15.48-3.75,33.76-9.38,35.17-41.74.94-40.8,5.63,25.32,12.19,38.92,8c0,0-15,37.05-34.7,35.17s-25.79-14.07-38-15-21.1,2.35-15,5.63,26.73,1.08,36.58,9.45,17.82,13.53-.47,17.28-51.12,1.41-57.68-12.66Z" transform="translate(0)"/><path class="cls-6" d="M1872.71,604.44S1774.23,636.33,1763,672c0,0,.47,15.95-9.38,34.24v7s10.32-23.92,16-27.2C1769.54,686,1747.5,655.09,1872.71,604.44Z" transform="translate(0)"/><path class="cls-6" d="M1753.59,706.21s-15.19,23.06-6.53,51.13l3.91-1.05s-3.79-30.92,4.15-46.47S1753.59,706.21,1753.59,706.21Z" transform="translate(0)"/><path class="cls-11" d="M1975.49,774.56s52.06-212.09,55.82-229.92c1.67-7.94,6.83-10.81,12-11.55-9.15-.94-15.81-1-15.81-1-18,0-34,12.9-39.8,32.06-12.6,41.79-61.46,111.75-85,190.24C1904,754.35,1975.49,774.56,1975.49,774.56Z" transform="translate(0)"/><path class="cls-11" d="M1713.56,846.78V807c9.45-18.24,19-34.74,27.24-47.69,1.27-2,2.5-3.88,3.7-5.68h0c.39-.6.77-1.16,1.16-1.73h0c1.57-2.36,3.08-4.55,4.51-6.55h0c2.2-3.07,4.21-5.72,6-7.87a28.3,28.3,0,0,1,9.41-7.3h0l.94-.46a43.72,43.72,0,0,1,4.42-1.75l.48-.17h0a66.57,66.57,0,0,1,14.27-2.82h0c11.22-1.09,24-.23,36.71,1.6h0c1.62.23,3.24.47,4.85.74,7,1.13,14,2.54,20.46,4h.07c2.39.54,4.71,1.1,7,1.65l.51.14h0l2.34.59c3.5.89,6.81,1.79,9.87,2.65,12.73,3.58,21.17,6.58,21.17,6.58l0,1.72.15,6.41.09,3.14.23,9.24v.4l0,1.28.2,8,0,.67,1.84,72.93Z" transform="translate(0)"/><path class="cls-12" d="M1959.06,771.15c-1.09-.53-2.7-1.33-4.78-2.33h0c-.4-.2-.81-.39-1.24-.58v0l-3.72-1.75c-1.66-.77-3.48-1.62-5.43-2.5-2.7-1.24-5.66-2.57-8.86-4l-2.85-1.24h0l-2.81-1.2h0c-3.72-1.58-7.67-3.22-11.81-4.87a0,0,0,0,1,0,0c-3.86-1.55-7.89-3.12-12-4.65l-.65-.26c-11.55-4.29-24-8.44-36.4-11.77-3.9-1-7.78-2-11.64-2.85h0l-1.57-.35h0s-.05,0-.09,0h0q-3.64-.79-7.25-1.42h-.07a156.49,156.49,0,0,0-18.81-2.34c-1.44-.08-2.85-.14-4.24-.17-11.06-.25-20.9,1.22-28.59,5.13a29.08,29.08,0,0,0-12.44,11.65,268.28,268.28,0,0,0-11.73,24.6,781.31,781.31,0,0,0-27.85,76.57h209.79l.53-5.93v0l1.06-11.71,5.15-57V772Z" transform="translate(0)"/><path class="cls-13" d="M2051.41,532.88v313.9h-12.18c-8.66-1.22-17.28-2.55-25.68-4h0c-14.31-2.46-27.9-5.22-39.73-8.24-3.48-.89-6.82-1.8-10-2.75-1.9-.56-3.74-1.13-5.49-1.71-1-.32-1.95-.64-2.88-1-13.2-4.61-21.76-9.66-22.81-15.06-1-4.92,1.4-16.64,5.92-32.56,0,0,0,0,0,0,.8-2.88,1.7-5.92,2.65-9.07.44-1.44.9-2.92,1.36-4.43l.54-1.73.22-.72c.17-.52.34-1,.5-1.56l.12-.39h0q1.6-5.07,3.36-10.4c1.68-5.07,3.45-10.33,5.31-15.73,2.41-7.05,5-14.33,7.63-21.77l2.33-6.52c2.8-7.74,5.68-15.59,8.59-23.46,7.5-20.23,15.28-40.57,22.5-59.15,2.17-5.59,4.29-11,6.35-16.25,0,0,0,0,0,0,1.41-3.64,2.81-7.17,4.16-10.58,3.94-10,6.74-19.62,9.35-28.29v0c3.89-13,7.4-23.8,13.76-30.64a23.91,23.91,0,0,1,14.7-7.53l1.13-.13h0a36.13,36.13,0,0,1,3.82-.2Z" transform="translate(0)"/><path class="cls-13" d="M2013.55,842.79h0l-21.14-69.67-.35-1.14s-2.37-.24-6.65-.62c-2.41-.22-5.41-.49-8.93-.79-5.6-.47-12.52-1-20.4-1.63h0l-.68-.05h0l-1.09-.07h0c-1.48-.13-3-.23-4.54-.34h0l-2.12-.15-5-.35c-11.92-.81-25.28-1.61-39.26-2.25-3.43-.16-6.92-.3-10.43-.45l-3.68-.13c-8.36-.3-16.84-.54-25.27-.68h0c-11.43-.18-22.78-.18-33.64.06h0l-2.56.08c-5.4.14-10.66.35-15.74.64-9.65.53-18.64,1.34-26.62,2.48-4.89.7-9.4,1.52-13.45,2.48-9.21,2.17-16.06,5.08-19.57,8.85-7.63,8.21-13.17,34.51-17.18,67.72h279.57Z" transform="translate(0)"/><path class="cls-14" d="M1935.42,636s-12,4.27-21.42,23.42-13.34,70.72-18,71.21-40.18-6.42-40.18-6.42l.82,8.85s36.93,24.57,44.65,20.16,29-64,30.39-73S1935.42,636,1935.42,636Z" transform="translate(0)"/><path class="cls-1" d="M2017.9,629.35s-48-10.18-82.48,6.66c0,0-22.08,47.55-21.4,55.61s8.35,41.67,1.39,54.36,63.9,35.23,76.66,27.38S2020,638.1,2017.9,629.35Z" transform="translate(0)"/><path class="cls-15" d="M1845.56,821.61c-3.24,7.51-7.55,16-12.38,25.17h-65.3c7.48-39.08,14.17-66.27,17.51-79,1.43-5.47,2.24-8.3,2.24-8.3,3.18-5.62,7-8.73,11.16-9.95,0,0,0,0,.06,0,8.78-2.53,19.09,3.35,28.27,11.94,1.07,1,2.15,2.07,3.19,3.14h0a115.28,115.28,0,0,1,9.59,11.37c6.57,8.84,11.12,17.53,11.75,22C1852.42,803.16,1850,811.45,1845.56,821.61Z" transform="translate(0)"/><path class="cls-15" d="M1798.37,749.69s14.69-8.42,48.08-1.17,60.7,24.59,60.7,24.59L1822,776.64Z" transform="translate(0)"/><path class="cls-14" d="M2004.6,629.23s21.3-3.9,24.26,13.45.35,122.05-16,127.33-83.25-24.18-83.25-24.18l2-11.18s64,8.72,66.35,7.76S2004.6,629.23,2004.6,629.23Z" transform="translate(0)"/><path class="cls-16" d="M1839.91,708.16l-3-27.93,39.49,52s-16.53,8.24-17.51,6.66Z" transform="translate(0)"/><polygon class="cls-16" points="1899.01 708.16 1935.49 763.87 1874.22 763.87 1839.91 708.16 1899.01 708.16"/><polygon class="cls-1" points="1839.91 708.16 1837.05 680.5 1857.69 706.32 1839.91 708.16"/><polygon class="cls-17" points="1933.62 761 1936.42 759 1900.17 705.13 1899.01 708.16 1933.62 761"/><polygon class="cls-18" points="1900.17 705.13 1842.44 706.75 1839.91 708.16 1899.01 708.16 1900.17 705.13"/><path class="cls-19" d="M1919.52,846.78h-65.31c-3.17-9-6-17.42-8.65-25.17-6.58-19.67-11.38-35.15-14.43-45.34-1.62-5.45-2.75-9.39-3.38-11.66-.44-1.5-.64-2.28-.64-2.28,0-.31,0-.63,0-.94.09-7.26,2.59-12.08,6.61-15l.64-.44,0,0c6.62-4.39,17-4.19,27.66-1.77h0A113.26,113.26,0,0,1,1889,754.23c6.15,3.27,10.85,6.59,12.81,9.06.14.18.29.37.43.58a20.21,20.21,0,0,1,1.14,1.86,46.23,46.23,0,0,1,2.87,6.8l.13.4c0,.07.05.14.07.2,3.68,11,7,28.47,9.82,48.38h0C1917.42,829.63,1918.5,838.14,1919.52,846.78Z" transform="translate(0)"/><path class="cls-19" d="M1834.38,745.9s25.28-22.69,128.44,26.18l-84.72,1.28Z" transform="translate(0)"/><path class="cls-14" d="M1931.66,734.65s-9.38-6.29-12.84-6.77c-4.06-.57-8.43-5.68-8-2.77s4.93,6.67,6.17,7.89-7,1-10.35-.6c-1.56-.76-9.87-2.92-9.81.08,0,1.79,3.29,10.41,11.5,12.27,3.79.85,22,1.36,22,1.36Z" transform="translate(0)"/><path class="cls-20" d="M1974.49,580.61s17.9,9.8,4.1,29.37c0,0,15.56,2.25,19.61-2.13a12.59,12.59,0,0,1-1.37,2.88s15.17-1.55,20.75-7.13-9.16-82.26-49.86-67.8c0,0-35.89,2.26-26.87,42.89s-4.39,42.5-4.39,42.5,4,1.32,5.79,1.07c0,0,2.49-1.37,2.81-2.89a9.39,9.39,0,0,1-.78,3.18s14.67-.65,21.13-7.11S1977.73,588.8,1974.49,580.61Z" transform="translate(0)"/><path class="cls-20" d="M1980.81,601.05s9.74-13.73,12.54-25.77c2-8.59,12.83-43.91-19.72-41,0,0-23,3.37-32.12,8.86-7.26,4.37-17.92,14.07-8.08,42.71l2.44,9.63Z" transform="translate(0)"/><path class="cls-14" d="M1959.84,642.29c2.42,1.77,13.05,4,21.55-.26,8-3.95,11.66-12.52,10.46-16s-4.91-4.69-8.95-25.84l-1.56.64-26.15,10.69s2.29,8.44,3.88,16.5C1960.41,634.77,1958.44,641.27,1959.84,642.29Z" transform="translate(0)"/><path class="cls-21" d="M1955.19,611.5s2.29,8.44,3.88,16.5c15.14-3.4,20.47-18.85,22.27-27.19Z" transform="translate(0)"/><path class="cls-14" d="M1951.6,620.13s36.13-6.44,31.77-28.87-2.62-38.38-25.87-35.22-26.06,12.58-26.43,20.43S1942.09,621.22,1951.6,620.13Z" transform="translate(0)"/><path class="cls-20" d="M1941.86,550.72s17.77,30,35.29,32,21.57-5.64,21.57-5.64a48.38,48.38,0,0,1-19.6-26.13S1948.22,535.56,1941.86,550.72Z" transform="translate(0)"/><path class="cls-20" d="M1944.92,552.73s-7.32,7.72-8.44,14.38-.19,19.94-4.09,20c0,0-11.08-18.84-3.32-31.45C1937.3,542.31,1944.92,552.73,1944.92,552.73Z" transform="translate(0)"/><path class="cls-20" d="M1943.53,553.94s12.13,29.72,34.85,36.62c0,0-24-16-28.61-36S1943.53,553.94,1943.53,553.94Z" transform="translate(0)"/><path class="cls-20" d="M2017.58,603.6c-5.57,5.58-20.74,7.14-20.74,7.14a13.07,13.07,0,0,0,1.36-2.89c-8,6.08-26.9,1-26.9,1,15.31-2.94,11-25,5.85-26.12-2.55-16.65-8-37.44-10.49-46.78.68-.09,1.06-.12,1.06-.12C2008.42,521.34,2023.16,598,2017.58,603.6Z" transform="translate(0)"/><path class="cls-1" d="M1997.65,627.39s23.48.36,29.65,5.43,9,77.55,9,77.55-11.13-3-21.11-.69-23.14,0-23.14,0Z" transform="translate(0)"/><path class="cls-1" d="M1958,628.7s-29.6,5.93-36.35,13.79-20.36,47.39-20.36,47.39,5.26.8,8,4.45,11.54,1.93,11.54,1.93Z" transform="translate(0)"/><path class="cls-11" d="M1904,846.78c4.06-8.81,8.18-17.29,12.23-25.26h0c8.09-15.89,15.89-29.73,22.35-40,0,0,0,0,0,0,2.17-3.47,4.19-6.53,6-9.12.83-1.17,1.61-2.24,2.35-3.22.21-.28.42-.54.65-.81s.22-.28.35-.42c.26-.3.51-.59.8-.87a5.9,5.9,0,0,1,.55-.57,3.09,3.09,0,0,1,.41-.4,34,34,0,0,1,12.42-7.26,69,69,0,0,1,18-3.32,137.29,137.29,0,0,1,19.79.34h0c6.86.56,13.77,1.54,20.44,2.73,2.29.41,4.54.83,6.75,1.29a.15.15,0,0,1,.09,0h0c9,1.83,17.38,4,24.12,5.83v81.08Z" transform="translate(0)"/><path class="cls-22" d="M1952.31,846.78c.7-2,1.4-4,2.1-5.93v0c1.31-3.67,2.63-7.26,3.94-10.74,3.7-9.86,7.34-18.94,10.7-26.9a284.75,284.75,0,0,1,12.6-26.69c.3-.52.61-1,.94-1.54a26.67,26.67,0,0,1,2.8-3.6,28,28,0,0,1,4.17-3.75,34.59,34.59,0,0,1,8.1-4.38c6.42-2.48,14-3.57,22.38-3.59,2.31,0,4.69.07,7.11.21a.15.15,0,0,1,.09,0h0c4,.24,8.13.69,12.36,1.3.72.1,1.42.21,2.13.33l.54.08c3,.49,6,1.06,9.09,1.68v83.52Z" transform="translate(0)"/><path class="cls-23" d="M2076.56,846.62H2069V374.49H1696.44V846.62h-7.61A34.42,34.42,0,0,0,1654.42,881v1.2H2111V881A34.41,34.41,0,0,0,2076.56,846.62Zm-362.79-454.8h337.86v83.49H1713.77Zm0,103h337.86V846.62H1713.77Z" transform="translate(0)"/><rect class="cls-1" x="1719.89" y="399.28" width="326.65" height="16.43"/><rect class="cls-1" x="1719.89" y="425.08" width="326.65" height="16.43"/><rect class="cls-1" x="1719.89" y="450.88" width="326.65" height="16.43"/><rect class="cls-1" x="1719.89" y="475.05" width="326.65" height="16.43"/><rect class="cls-1" x="1719.89" y="502.21" width="326.65" height="16.43"/><rect class="cls-1" x="1735.05" y="391.55" width="3.16" height="140.41"/><rect class="cls-1" x="2030.11" y="391.55" width="3.16" height="140.41"/><rect class="cls-24" x="1712.69" y="1204.26" width="355.18" height="472.14"/><path class="cls-1" d="M1897.17,1212.76s.85,139.52-140.68,257.45c0,0,29.48,153.79,25.27,197.36h-68V1212.76Z" transform="translate(0)"/><path class="cls-14" d="M1909.53,1450.43a33.62,33.62,0,0,0-23.34,16.18c-8.64,14.57-25.36,77.63-37.59,90.49s-55.33,38.6-55.33,38.6l10.94,7.08s65.62-19.94,75.27-31.52,23.28-73.67,23.28-73.67Z" transform="translate(0)"/><path class="cls-20" d="M1924,1361.7s.83-20.78,30.75-22.07,51.44,23.94,52.42,37.7-5.13,35.2,14.49,49.42,10,80.39-36.35,80.39-73.93-2.69-74.1-26.61-.93-45.58,17.47-52.22S1924,1361.7,1924,1361.7Z" transform="translate(0)"/><path class="cls-19" d="M1974.6,1627.67l-.17.56c0,.15-.1.3-.16.5-.12.41-.29.94-.48,1.59,0,.15-.1.32-.15.49-.17.52-.35,1.12-.54,1.78-.12.38-.24.79-.38,1.23-1,3.45-2.48,8.24-4.18,14-.42,1.49-.88,3-1.36,4.67l-.71,2.46c-.08.28-.17.57-.24.86-.17.57-.34,1.13-.5,1.71l-.58,2c-.45,1.56-.9,3.17-1.38,4.82-1.08,3.83-2.22,7.87-3.37,12h-70c.17-4.39.37-8.54.63-12.42,0-.91.11-1.79.17-2.67.3-4.38.64-8.42,1-12.07.1-1,.18-1.91.28-2.83.19-1.85.39-3.59.58-5.24,0-.3.07-.59.11-.88s.07-.59.11-.89c.21-1.74.42-3.33.62-4.78.08-.49.15-1,.21-1.42s.13-.89.19-1.32.13-.82.19-1.21.12-.75.18-1.11c0-.18,0-.35.08-.52.09-.51.16-1,.23-1.42.06-.29.11-.56.15-.82s.09-.49.13-.71a9.57,9.57,0,0,1,.83-2.52c.1-.19.21-.38.32-.57s.22-.36.34-.53a10.11,10.11,0,0,1,.83-1c.14-.14.28-.29.43-.42a3.89,3.89,0,0,1,.48-.43c.13-.11.25-.21.39-.31a8.17,8.17,0,0,1,.7-.5l.48-.31c.35-.2.72-.41,1.09-.58l.6-.28c.23-.11.48-.2.72-.3l.7-.25c.22-.09.45-.16.68-.23a22.78,22.78,0,0,1,2.53-.65l.62-.13c.33-.07.66-.13,1-.18l1.35-.19.92-.1.75-.07,1.29-.1,1.58-.07c2.43-.08,5,0,7.71.15.62,0,1.24.08,1.86.13,1,.08,2.07.18,3.11.29,1.5.16,3,.34,4.56.56h0l.43.06c.71.09,1.43.2,2.14.31q3.22.5,6.44,1.1l2.53.5,2.32.47c2.17.45,4.3.92,6.35,1.4l2.28.55a4.07,4.07,0,0,1,.58.14c.37.09.74.17,1.09.27l1.61.4,2.54.65,1,.25,1.52.41c1.37.37,2.65.73,3.83,1.07l1.56.45,1.25.36a.61.61,0,0,1,.18.05l1,.29.89.26,1,.31.59.18.61.18Z" transform="translate(0)"/><path class="cls-15" d="M1974.6,1627.67l-.17.56c0,.15-.1.3-.16.5-.12.41-.29.94-.48,1.59,0,.15-.1.32-.15.49-.17.52-.35,1.12-.54,1.78-.12.38-.24.79-.38,1.23-1,3.45-2.48,8.24-4.18,14-.42,1.49-.88,3-1.36,4.67l-.71,2.46c-.08.28-.17.57-.24.86-.17.57-.34,1.13-.5,1.71l-.58,2c-.45,1.56-.9,3.17-1.38,4.82-1.08,3.83-2.22,7.87-3.37,12h-70c.17-4.39.37-8.54.63-12.42,0-.91.11-1.79.17-2.67.3-4.38.64-8.42,1-12.07.1-1,.18-1.91.28-2.83.19-1.85.39-3.59.58-5.24,0-.3.07-.59.11-.88s.07-.59.11-.89c.21-1.74.42-3.33.62-4.78.08-.49.15-1,.21-1.42s.13-.89.19-1.32.13-.82.19-1.21.12-.75.18-1.11c0-.18,0-.35.08-.52.09-.51.16-1,.23-1.42.06-.29.11-.56.15-.82s.09-.49.13-.71a9.57,9.57,0,0,1,.83-2.52c.1-.19.21-.38.32-.57s.22-.36.34-.53a10.11,10.11,0,0,1,.83-1c.14-.14.28-.29.43-.42a3.89,3.89,0,0,1,.48-.43c.13-.11.25-.21.39-.31a8.17,8.17,0,0,1,.7-.5l.48-.31c.35-.2.72-.41,1.09-.58l.6-.28c.23-.11.48-.2.72-.3l.7-.25c.22-.09.45-.16.68-.23a22.78,22.78,0,0,1,2.53-.65l.62-.13c.33-.07.66-.13,1-.18l1.35-.19.92-.1.75-.07,1.29-.1,1.58-.07c2.43-.08,5,0,7.71.15.62,0,1.24.08,1.86.13,1,.08,2.07.18,3.11.29,1.5.16,3,.34,4.56.56h0l.43.06c.71.09,1.43.2,2.14.31q3.22.5,6.44,1.1l2.53.5,2.32.47c2.17.45,4.3.92,6.35,1.4l2.28.55a4.07,4.07,0,0,1,.58.14c.37.09.74.17,1.09.27l1.61.4,2.54.65,1,.25,1.52.41c1.37.37,2.65.73,3.83,1.07.55.14,1.07.3,1.56.45l1.25.36a.61.61,0,0,1,.18.05c.35.09.69.2,1,.29l.89.26,1,.31.59.18.61.18Z" transform="translate(0)"/><path class="cls-19" d="M2009.15,1676.39H1940c-1.71-9.71-3.33-18.68-4.79-26.48-2.46-13.35-4.41-23.3-5.29-27.77l-.52-2.64s.64-.76,1.76-2h0c7.18-8.08,34.28-36.72,47.23-23.58,2.12,2.16,4.37,4.44,6.66,6.93,7.74,8.45,15.88,19.15,20.63,34.23C2009.18,1646.17,2010.85,1659.66,2009.15,1676.39Z" transform="translate(0)"/><path class="cls-14" d="M1924,1460.2l11.7,17.54,23.57-1.16,10.89-28.14s-3.36-.64-4.92-35.74l-29.43,9a57.12,57.12,0,0,1-.52,19.11C1933.88,1447.74,1930.7,1455.16,1924,1460.2Z" transform="translate(0)"/><path class="cls-14" d="M1920.76,1447.81c1.51,0,29.23-9.27,68.81,6.85,0,0-18.79,107.49-10.72,128a216.82,216.82,0,0,1,11.14,38.72l-87.56,1.09s1.23-70.42-2.81-95.34S1920.76,1447.81,1920.76,1447.81Z" transform="translate(0)"/><path class="cls-11" d="M2007.21,1632.72c-1.47,3.09-4.78,5.52-8.81,7.47a83.88,83.88,0,0,1-16.86,5.41,160.06,160.06,0,0,1-17.18,2.73c-3.76.43-7.78.79-11.85,1l-1.73.09c-26.38,1.31-55.92.67-59.77-11.88-.37-1.19-.37-3.6-.13-6.78.51-6.47,2-16.15,3.48-25.21,1.4-8.66,2.76-16.75,3.15-21,2-22.23-2.22-54.16-2.84-74.82-.5-17.23,14.86-59.36,14.86-59.36s2.92-1.74,14.33-3.31c0,0,1.65,20.68,12.27,22.43,18.38,3,33.18-13.79,37.52-20.57,0,0,21.1,5.32,27.29,12.39,4.45,5.07,3.87,17.2,2.55,24.85a34.36,34.36,0,0,1-1.34,5.53c-1.31,3.45-6.25,28.8-8.51,38.9-.05.25-.1.49-.15.71-.16.68-.28,1.27-.41,1.76,0,0,0,0,0,0-.12.54-.24,1-.33,1.23s-.1.34-.15.49a0,0,0,0,1,0,0c-3.25,10.37-5.21,20.95-4.06,33.93a35.76,35.76,0,0,0,1,5.43C1992.45,1589.36,2004.67,1619.09,2007.21,1632.72Z" transform="translate(0)"/><path class="cls-21" d="M1935.33,1440.79c12.17-1,30-28.09,30-28.09l-29.43,9A57.12,57.12,0,0,1,1935.33,1440.79Z" transform="translate(0)"/><path class="cls-11" d="M1923.86,1447.12s-28.23,3-37.67,16.3-15.45,33.17-15.45,33.17,6.74,20.21,26.43,17.69S1923.86,1447.12,1923.86,1447.12Z" transform="translate(0)"/><path class="cls-14" d="M1930.92,1429.65s35.92-1.09,34.9-23.45,2.92-37.55-20.06-37.8-27,8.48-28.51,16S1921.55,1429.36,1930.92,1429.65Z" transform="translate(0)"/><path class="cls-20" d="M1933.69,1365.56s1.09,7.41,15.25,17.13,16.58,32.33,16.58,32.33,10.7-40.18-2.1-49.23S1933.69,1365.56,1933.69,1365.56Z" transform="translate(0)"/><path class="cls-20" d="M1945.29,1352.89s-18.39-1.74-31.44,18.88c-5.62,8.88-1.23,22.76,4.58,30,0,0,1.91-19,11.94-25.33S1945.29,1352.89,1945.29,1352.89Z" transform="translate(0)"/><path class="cls-1" d="M1939.16,1416.61s-.33,2.76-7.06,3.11c0,0-5.65.29-5.81-2.68C1926.29,1417,1931.49,1414.32,1939.16,1416.61Z" transform="translate(0)"/><path class="cls-6" d="M1822.48,1565.53s-9.47-11-.59-18.07c0,0,6.5-3.93,11.79-3.61,0,0-7.5,12.58-5.07,13.83s7.34-14.62,7.34-14.62,14.78-1.43,19.53.86c0,0-12.63,10.33-10,10.95s16.3-9.53,16.3-9.53,13.75,2.34,13,10.73-5.47,11-7.55,10.75-14.27-4.87-14.53-3.17,7.06,7.29,12.2,7.55c0,0-9.7,10.69-16.14,7.6s-7-8-11-9.81-7.44-1.83-5.78,0,8.92,3.69,11.22,7.76,4.36,6.8-2.31,5.8-17.5-5.89-18-11.47Z" transform="translate(0)"/><path class="cls-6" d="M1868.07,1556.29s-37.34-1.44-45.59,9.24A27,27,0,0,1,1815,1576l-.87,2.39s6.47-6.83,8.78-7.24C1823,1571.12,1819.33,1557.89,1868.07,1556.29Z" transform="translate(0)"/><path class="cls-6" d="M1815,1576a23.43,23.43,0,0,0-8.57,16.52l1.45.13s2.56-10.95,7.19-15.23S1815,1576,1815,1576Z" transform="translate(0)"/><path class="cls-10" d="M1789.36,1551.64s15.07-8.44,8-19.89c0,0-5.63-7-11.66-8.84,0,0,3.22,17.07,0,17.48s-2.21-19.29-2.21-19.29-15.87-7.64-22.1-7c0,0,9.85,16.67,6.63,16.27s-14.26-17.28-14.26-17.28-16.27-3-18.89,6.63,1.61,14.47,4,15.07,17.88.4,17.48,2.41-10.85,5.22-16.67,3.42c0,0,6.43,15.87,14.86,15.07s11.05-6,16.28-6.43,9,1,6.43,2.41-11.46.46-15.67,4-7.64,5.8.2,7.41,21.89.6,24.71-5.43Z" transform="translate(0)"/><path class="cls-6" d="M1742.35,1522.71s42.19,13.66,47,28.93a32,32,0,0,0,4,14.66v3s-4.42-10.25-6.83-11.66C1786.55,1557.66,1796,1544.4,1742.35,1522.71Z" transform="translate(0)"/><path class="cls-6" d="M1793.38,1566.3s6.5,9.88,2.79,21.91l-1.67-.45s1.63-13.25-1.78-19.91S1793.38,1566.3,1793.38,1566.3Z" transform="translate(0)"/><path class="cls-10" d="M1813.33,1540s-19.86-11.12-10.59-26.22c0,0,7.41-9.27,15.36-11.65,0,0-4.24,22.51,0,23s2.91-25.43,2.91-25.43,20.92-10.06,29.13-9.26c0,0-13,22-8.74,21.45s18.81-22.78,18.81-22.78,21.45-4,24.89,8.74-2.12,19.07-5.3,19.86-23.57.53-23,3.18,14.3,6.89,22,4.5c0,0-8.47,20.93-19.59,19.87s-14.57-8-21.45-8.48-11.92,1.33-8.48,3.18,15.1.61,20.66,5.33,10.06,7.65-.27,9.76-28.86.8-32.57-7.15Z" transform="translate(0)"/><path class="cls-6" d="M1875.3,1501.86s-55.61,18-62,38.14a42.2,42.2,0,0,1-5.29,19.33v4s5.82-13.5,9-15.36C1817,1547.94,1804.59,1530.47,1875.3,1501.86Z" transform="translate(0)"/><path class="cls-6" d="M1808,1559.33s-8.58,13-3.69,28.88l2.2-.59s-2.14-17.47,2.35-26.25S1808,1559.33,1808,1559.33Z" transform="translate(0)"/><path class="cls-19" d="M1851.57,1583.68a38.91,38.91,0,1,1-77.81,0Z" transform="translate(0)"/><path class="cls-25" d="M1812.66,1622.59c-1.58.2,6.38,0,4.74,0a38.9,38.9,0,0,1-38.9-38.91h9.66C1788.16,1603.53,1793.45,1620.21,1812.66,1622.59Z" transform="translate(0)"/><path class="cls-15" d="M1852.11,1624.57h-78.89a4.8,4.8,0,0,1,4.8-4.8h69.29A4.8,4.8,0,0,1,1852.11,1624.57Z" transform="translate(0)"/><rect class="cls-15" x="1772.48" y="1583.68" width="79.98" height="1.19"/><path class="cls-14" d="M1854,1598.19c-.88-2.07-9.32-4.11-12.69-5.57,0,0-2.14,1.54.73,4.07.77.68,2.21,1.74,3.56,2.7l-1.22-.32c-3-.82-22.48,5.82-24.8,10.14s11.18,15.11,21.25,11.72c5.17-1.74,22.07-4.8,22.07-4.8l-2.83-13.67S1854.89,1600.27,1854,1598.19Z" transform="translate(0)"/><path class="cls-14" d="M2004.15,1470.15s4,27.76-24.94,68.94-27.27,43.75-43.88,54.68-72.42,22.36-72.42,22.36l-2.83-13.67s54.15-34.82,59.29-41.7,39.94-84.18,39.94-84.18Z" transform="translate(0)"/><path class="cls-11" d="M1976.36,1459.84s-23.1,18.11-29.24,27-11.79,28.64-11.79,28.64,24.18,15.17,65.88,4.22c0,0,11.1-51.57-.27-58.28a24.33,24.33,0,0,0-21.91-1.53Z" transform="translate(0)"/><path class="cls-1" d="M1906.44,1212.76s25.85,114.25,145.19,154.68c0,0-1.14,176.07-14.62,222.4s-16.84,77.73-16.84,77.73h31.46V1212.76Z" transform="translate(0)"/><path class="cls-23" d="M2076.56,1667.57H2069V1195.43H1696.44v472.14h-7.61a34.42,34.42,0,0,0-34.41,34.41v1.2H2111V1702A34.41,34.41,0,0,0,2076.56,1667.57Zm-362.79-454.81h337.86v83.5H1713.77Zm0,103h337.86v351.82H1713.77Z" transform="translate(0)"/><rect class="cls-26" x="925.49" y="1813.4" width="1334.55" height="182.65"/><path class="cls-10" d="M1242.46,1997.15s-24.73-88.87-127.46-118.7-96.11-14.91-188.91-67.94-238.61-19.88-268.44,23.2-99.42,66.29-195.53,64.63-101,91.94-101,91.94Z" transform="translate(0)"/><rect class="cls-9" x="1139.42" y="1204.25" width="355.18" height="472.14"/><rect class="cls-27" x="1148.09" y="1212.91" width="337.86" height="454.81"/><path class="cls-20" d="M1285.79,1613.41s-19.48,26.57-19.48,54.31h132.24s-7.09-43.09-37.19-54.31S1285.79,1613.41,1285.79,1613.41Z" transform="translate(0)"/><path class="cls-14" d="M1447.62,1470.22s-20.79,52.9-23.11,54.77c-6.25,5-44.68-53.64-50.58-63.88s-42.39-1.48-45.49-20.53c-1-5.85-2.89-12.25-2.91-16.35v-1.49a105.7,105.7,0,0,1,.83-12l-1.82.15-30.61,2.36a36.12,36.12,0,0,1,2,16.29c-.34,2.9-.46,8.36-.82,13.7a14.21,14.21,0,0,1-10.17,12.7c-13.11,3.85-29.35,9.62-32.18,16.92-5.51,14.18-17.91,78.28-20.27,100s-24.4,85.44-24.4,85.44h11s41.32-69.51,44.87-80.37c1.08-3.33,5-16.63,10-33.45,4.62,18.29,11.19,36.55,12.6,44,2.49,13-21.37,54.9-19,66.52s128.69,17.9,127,0-19.53-48.22-23.07-62.39c-2.67-10.68,3.52-46.34,5.45-67.52,19.29,22,45.53,42.61,53.58,38.4,20.67-10.83,27.16-90.72,27.16-90.72Z" transform="translate(0)"/><path class="cls-20" d="M1303.85,1394.26s-16.46,13.1-2.56,32c0,0-16.12-.66-20.17-4.88a12.39,12.39,0,0,0,1.39,2.8s-14.91-1.23-20.49-6.59,7.43-80.85,47.62-67.44c0,0,35.24,1.53,27.16,41.55s5.11,41.6,5.11,41.6-3.88,1.37-5.65,1.16c0,0-2.47-1.3-2.81-2.79a9.19,9.19,0,0,0,.82,3.1s-14.39-.35-20.86-6.57S1300.83,1402.36,1303.85,1394.26Z" transform="translate(0)"/><path class="cls-20" d="M1289.32,1410.76s-7.12-14.9-7.81-27c-.49-8.64,7.56-39.48,38.53-31.21a43.22,43.22,0,0,1,17,8.83c6.29,5.44,15,16.59.67,42.64l-4,8.9Z" transform="translate(0)"/><path class="cls-21" d="M1328.44,1440.58c-22.09-3.22-34.55-26.46-34.55-26.46,9-1,21.58,3.58,31.64,8.62v1.49C1325.55,1428.33,1327,1434.84,1328.44,1440.58Z" transform="translate(0)"/><path class="cls-14" d="M1328.73,1431.76s-39.67-4.07-36.76-28.73-.24-41.81,25.21-40.25,29.25,11.55,30.28,20S1339.12,1432.19,1328.73,1431.76Z" transform="translate(0)"/><path class="cls-20" d="M1335.29,1364.33s-14.29,27.64-31.44,29.93-23.83-3-23.83-3a47.43,47.43,0,0,0,18.73-26S1328.75,1349.58,1335.29,1364.33Z" transform="translate(0)"/><path class="cls-20" d="M1332.32,1366.36s7.33,7.42,8.55,13.94.57,19.55,4.39,19.56c0,0,10.51-18.69,2.66-30.91C1339.6,1356,1332.32,1366.36,1332.32,1366.36Z" transform="translate(0)"/><path class="cls-20" d="M1333.71,1367.51s-11.34,29.38-33.49,36.58c0,0,23.21-16.11,27.38-35.9S1333.71,1367.51,1333.71,1367.51Z" transform="translate(0)"/><path class="cls-1" d="M1320.6,1417.36s1,3.55,3.41,4.08,8.78,1.22,9.35.75a30.67,30.67,0,0,0,2.47-3.62S1325.64,1416.23,1320.6,1417.36Z" transform="translate(0)"/><path class="cls-14" d="M1447.21,1473.21s-.72-18.83,1.28-25.3,6.36-16.88,7.34-16.44,2.91,14.54,2.1,17.71.83,10.67,2.09,9.17,3.22-11.51,4.87-10.92.12,6.67.91,8.2.72,5.63-2.48,10.82-6.29,11.14-6.29,11.14Z" transform="translate(0)"/><path class="cls-14" d="M1210.52,1658.28s-16-3.83-21.2-2-14.81,11.15-12.34,11.3,13.42-2.8,15-2.41,6,1,6,1-6.48.41-6.17,1.58,16.78,1.39,18.73,0,8.64-9.44,8.64-9.44Z" transform="translate(0)"/><path class="cls-1" d="M1268,1461.79s20,17.13,45.49,15.8S1359,1455.3,1359,1455.3s11.59.09,17.7,6.59,29.32,35.62,29.32,35.62,2,21.84-24.06,37.09l-2.64-4.72s-4.4,54.41-1.64,59.52,24.4,58.66,20.86,66.87-122,28.41-131-1.32,13.36-55.51,12.45-66.14-6-44.35-6-44.35-34.23-5.24-35.42-25.7C1238.56,1518.76,1244.62,1461.51,1268,1461.79Z" transform="translate(0)"/><path class="cls-23" d="M1511.09,1667.57h-7.61V1195.43H1131v472.14h-7.61A34.42,34.42,0,0,0,1089,1702v1.2H1545.5V1702A34.41,34.41,0,0,0,1511.09,1667.57ZM1148.3,1212.76h337.86v83.5H1148.3Zm0,103h337.86v351.82H1148.3Z" transform="translate(0)"/><rect class="cls-1" x="1154.42" y="1220.23" width="326.65" height="16.43"/><rect class="cls-1" x="1154.42" y="1246.03" width="326.65" height="16.43"/><rect class="cls-1" x="1154.42" y="1271.83" width="326.65" height="16.43"/><rect class="cls-1" x="1154.42" y="1295.99" width="326.65" height="16.43"/><rect class="cls-1" x="1154.42" y="1323.16" width="326.65" height="16.43"/><rect class="cls-1" x="1169.58" y="1212.49" width="3.16" height="140.42"/><rect class="cls-1" x="1464.64" y="1212.49" width="3.16" height="140.42"/><path class="cls-18" d="M1347.23,1637.43h49.42a5.61,5.61,0,0,1,5.61,5.61v5.63a5.74,5.74,0,0,1-5.74,5.74h-49.29a0,0,0,0,1,0,0v-17A0,0,0,0,1,1347.23,1637.43Z"/><path class="cls-28" d="M1443.31,1644.42V1647a7.43,7.43,0,0,1-7.44,7.43h-90.11a1.07,1.07,0,0,1-1.08-1.07V1653a1.07,1.07,0,0,1,1.08-1.07h54.93a7.53,7.53,0,0,0,.77-1.16,7,7,0,0,0,.8-3.25v-3.25a6.75,6.75,0,0,0-1.49-4.25h-55a1.08,1.08,0,0,1-1.08-1.08v-.38a1.08,1.08,0,0,1,1.08-1.08h90.56a7,7,0,0,1,6.72,5.06A7.25,7.25,0,0,1,1443.31,1644.42Z" transform="translate(0)"/><path class="cls-29" d="M1443,1642.49h-41a6.67,6.67,0,0,0-1.27-2.52h-55a1.08,1.08,0,0,1-1.08-1.08v-.38a1.08,1.08,0,0,1,1.08-1.08h90.56A7,7,0,0,1,1443,1642.49Z" transform="translate(0)"/><polygon class="cls-30" points="1347.23 1645.92 1353.9 1646.21 1347.23 1646.38 1347.23 1645.92"/><polygon class="cls-30" points="1347.23 1648.59 1363.11 1648.87 1347.23 1649.05 1347.23 1648.59"/><path class="cls-16" d="M1357.52,1667.57h51.19v-13.21h-51.6a6.39,6.39,0,0,0-6.4,6.4h0A6.81,6.81,0,0,0,1357.52,1667.57Z" transform="translate(0)"/><path class="cls-18" d="M1399.12,1654.36h59.41a5.5,5.5,0,0,1,5.5,5.5v2.33a5.38,5.38,0,0,1-5.38,5.38h-59.53a0,0,0,0,1,0,0v-13.21A0,0,0,0,1,1399.12,1654.36Z" transform="translate(2863.15 3321.93) rotate(-180)"/><path class="cls-16" d="M1395.23,1667.57h70.82a1,1,0,0,0,1-1h0a1,1,0,0,0-1-1h-70.82a1,1,0,0,0-1,1h0A1,1,0,0,0,1395.23,1667.57Z" transform="translate(0)"/><path class="cls-16" d="M1395.23,1656.34h70.82a1,1,0,0,0,1-1h0a1,1,0,0,0-1-1h-70.82a1,1,0,0,0-1,1h0A1,1,0,0,0,1395.23,1656.34Z" transform="translate(0)"/><polygon class="cls-30" points="1464.03 1660.96 1456.16 1661.19 1464.03 1661.32 1464.03 1660.96"/><polygon class="cls-30" points="1464.03 1657.92 1445.31 1658.15 1464.03 1658.28 1464.03 1657.92"/><path class="cls-28" d="M1445.5,1658.1a3.12,3.12,0,0,1,1.07,1.5,1.84,1.84,0,0,1,.08.53c0,1.24,0,4,0,4l2.37-1.4,2.36,1.4v-3.8a3,3,0,0,0-.58-1.88.89.89,0,0,0-.65-.39Z" transform="translate(0)"/><path class="cls-31" d="M1445.5,1658.1a3.12,3.12,0,0,1,1.07,1.5l4.75.06s-.19-1.34-1.17-1.56Z" transform="translate(0)"/><rect class="cls-4" x="1132.05" y="383.3" width="355.18" height="472.14"/><path class="cls-1" d="M1302.75,391.82s-.84,139.51,140.68,257.45c0,0-29.48,153.78-25.27,197.35h68V391.82Z" transform="translate(0)"/><path class="cls-32" d="M1176.07,656.56s-29.6,4.18-37.24,10.86c-12.89,11.28-3.44,183-3.44,183s44.53,3.68,44.53,0S1176.07,656.56,1176.07,656.56Z" transform="translate(0)"/><path class="cls-33" d="M1292.16,850.71l-63.66,4.73-44.37,3.29-9.36.7-.58-4-.51-3.53-.1-.79-2.24-15.53v-.05l-.89-6.12-2.72-18.89L1153.78,714l-3.89-26.91s-3-25.39,20.66-29.53l5.43-1,.09,0c8-1.42,17.14-3.07,26.13-4.22a150.69,150.69,0,0,1,21.25-1.45,63,63,0,0,1,7.85.59,29,29,0,0,1,8.24,2.28,5.56,5.56,0,0,1,.77.39,13.09,13.09,0,0,1,2.48,1.62,9.84,9.84,0,0,1,.89.81,18,18,0,0,1,2.78,5c1.13,2.7,2.4,6.29,3.78,10.63,1.93,6,4,13.49,6.3,21.9,6.28,23.54,13.49,54.58,19.78,82.81.19.86.39,1.7.57,2.55.81,3.64,1.61,7.23,2.37,10.74,0,.17.08.34.12.51l.42,2c.39,1.74.76,3.47,1.14,5.16.72,3.39,1.44,6.68,2.13,9.85,4.62,21.43,8,37.69,8.86,41.94C1292.09,850.33,1292.16,850.71,1292.16,850.71Z" transform="translate(0)"/><path class="cls-34" d="M1251.91,671.59s10.06,14.89,15.8,46.19c5,27.42,9.43,37.54,16.69,43.16s47.7,22.22,47.7,22.22l-3,7.08s-59.27-8.07-65.93-18-32-68.44-30.07-81.92S1251.91,671.59,1251.91,671.59Z" transform="translate(0)"/><path class="cls-22" d="M1387.7,855.44h-48.94c-1.22-4.88-3-8-6.48-8.14-3.11-.17-20,1.62-40.35,2.32-32.35,1.12-73.6-.46-82.89-16.82a56,56,0,0,1-5-11.64h0c-.18-.57-.34-1.11-.49-1.67a59.59,59.59,0,0,1-1.85-19.59,64.88,64.88,0,0,1,1.29-9.21,54.28,54.28,0,0,1,3.42-10.95l16,11.69h0l1.79,1.31s13.73-1,32.61-1.83c4.18-.17,8.62-.34,13.23-.47q3.43-.1,7-.18c.75,0,1.51,0,2.26,0,5.71-.12,11.56-.18,17.39-.18h1.73l4.11,0c22.55.23,44,1.71,54.84,5.82a21.51,21.51,0,0,1,3.93,1.89l.11.07C1369.2,803,1378.72,826.89,1387.7,855.44Z" transform="translate(0)"/><path class="cls-11" d="M1342.79,855.44H1228.5l-44.37,3.29a36.44,36.44,0,0,1-5.81-3.29,23.53,23.53,0,0,1-4.1-3.56c-.22-.25-.44-.51-.64-.76a15.31,15.31,0,0,1-1.82-2.76,23,23,0,0,1-2.72-12.44v0a23.82,23.82,0,0,1,1.4-6.48,39.08,39.08,0,0,1,8.83-13.4c9.56-9.95,22.33-16.13,22.33-16.13h.1c1.27.06,14.59.72,32.2,2.2h0c1.69.13,3.42.29,5.18.43h0c13.77,1.24,29.52,2.92,44,5.16,18.61,2.89,35,6.68,42.17,11.59C1330.8,823.1,1336.86,837,1342.79,855.44Z" transform="translate(0)"/><path class="cls-16" d="M1249.63,617.42a.9.9,0,0,0,0-.23v0c0-1.95-.13-3.9-.26-5.84a124.43,124.43,0,0,0-2.2-16.51c-.6-2.89-1.28-5.58-2.05-8l-.36-1.1h0c-1.86-5.57-4.14-9.64-6.63-11.29-4.54-3-10.19-3.67-14.16-3.7a6.75,6.75,0,0,1,3.12-1.23c-2.43-.53-8.08,1.54-8.08,1.54-33.3-15.45-42,34.51-42.08,46.25s-.88,25.2-18.63,34.55c-6.81,3.58-11.31,7.91-14.14,12.55-11.69,19.17,5.11,43.74,5.11,43.74s1.91,2.44,4.53,5.89c6.77,8.9,18.76,24.78,18.76,24.78v0c0-2.14,1.8-6.31,4.94-11.64,2.32-3.93,5.35-8.5,8.86-13.35,1.65-2.3,3.42-4.66,5.27-7.06,2.45-3.16,5.05-6.39,7.75-9.57q1.55-1.85,3.12-3.65c4.77-5.44,9.74-10.67,14.61-15.25,1.14-1.06,2.26-2.09,3.38-3.08h0c1.39-1.22,2.77-2.39,4.12-3.47a72.76,72.76,0,0,1,7.57-5.41l.34-.2h0l1-.6a28.92,28.92,0,0,0,2.8-4.37c.32-.6.63-1.2.91-1.82.87-1.81,1.63-3.69,2.3-5.5a93,93,0,0,0,3.22-11.39,98.78,98.78,0,0,1-2.45,11.78,53.68,53.68,0,0,1-1.79,5.35c-.43,1.09-.86,2-1.28,2.85-.18.37-.37.72-.56,1,.27-.22.53-.44.78-.67a21.4,21.4,0,0,0,2.7-2.9,29.5,29.5,0,0,0,2.63-4.06C1248.05,646.08,1250,631.57,1249.63,617.42Z" transform="translate(0)"/><path class="cls-14" d="M1232.94,658.6c-.59-.25-1.26-.51-2-.77,0-1.51.12-3.13.24-4.77.51-7.49,1.62-15.41,1.62-15.41L1207.89,631l-1.49-.4a77.46,77.46,0,0,1-4.88,23.6c-2.59.12-4.23.27-4.23.27-.42,1.5,0,3.84,1.39,6.45a9.79,9.79,0,0,0-.41,1.23c-1.55,7,16,16.83,24.16,17.19,4.77.21,7.31-1.68,8.65-4.09C1241,672.65,1240.23,661.64,1232.94,658.6Z" transform="translate(0)"/><path class="cls-34" d="M1232.82,637.65s-1.11,7.92-1.62,15.41c-14.12-1.35-20.73-14.74-23.31-22.09Z" transform="translate(0)"/><path class="cls-16" d="M1205.46,628s-6.63-12.2-7.74-22.33c-.79-7.23,4.61-33.48,31-27.89a36.29,36.29,0,0,1,14.62,6.67c5.52,4.29,13.3,13.27,2.43,35.77l-2.94,7.65Z" transform="translate(0)"/><path class="cls-14" d="M1237.07,645.06s-33.49-1.68-32.13-22.52-2-35.09,19.41-34.9,25.07,8.42,26.3,15.49S1245.81,645,1237.07,645.06Z" transform="translate(0)"/><path class="cls-16" d="M1239.62,588.15s-10.79,23.84-25.09,26.51-20.14-1.49-20.14-1.49A39.94,39.94,0,0,0,1209,590.52S1233.48,576.05,1239.62,588.15Z" transform="translate(0)"/><path class="cls-16" d="M1237.21,590s6.48,5.92,7.79,11.33,1.34,16.39,4.55,16.24c0,0,8-16.16.88-26.08C1242.87,581,1237.21,590,1237.21,590Z" transform="translate(0)"/><path class="cls-35" d="M1270.57,794.47c-2.71,3.24-11.17,4.24-20.21,5.73-7.12,1.17-14.59,2.65-19.91,5.77-12.07,7.09-51.51,31-63.07,29.95-4.48-.42-3.65-9-.93-20.33,4.27-17.93,13.22-42.82,13.22-53.65,0-5.91,2-19.89,4.59-35.87.21-1.29.43-2.59.65-3.9,5.19-31.08,12.38-67.73,12.38-67.73s8,17.5,23.65,17.5,12-13.34,12-13.34,14.26,1.68,17.63,5.3,11.91,19.32,13.61,23.6c0,0,.34,5.44-13.14,8,0,0,3.29,14.78,3.68,24.63.29,7.28-5,30.05-6.48,44.22-.54,5-.61,9,.21,10.74,1,2.28,4.41,4.56,8.25,6.8C1264.32,786.35,1273.79,790.62,1270.57,794.47Z" transform="translate(0)"/><path class="cls-36" d="M1256.7,781.92c8.65,14.75-23.46,19.18-28.77,22.3-12.08,7.09-49,32.79-60.55,31.7-4.48-.42-3.65-9-.93-20.33,4.27-17.93,13.22-42.82,13.22-53.65,0-5.91,2-19.89,4.59-35.87l13.91-13.36s14.91,38.53,29.13,44.85a119.3,119.3,0,0,0,20.94,6.82c-.54,5-.61,9,.21,10.74C1249.49,777.4,1252.86,779.68,1256.7,781.92Z" transform="translate(0)"/><rect class="cls-20" x="1259.7" y="792.66" width="43.77" height="5.17"/><path class="cls-20" d="M1294.18,797.13c.43-1.71,40.24-64.23,40.24-64.23H1423l-44.43,62.55Z" transform="translate(0)"/><path class="cls-37" d="M1297.9,797.84c.43-1.71,40.37-64.94,40.37-64.94H1423l-42.27,64.94Z" transform="translate(0)"/><path class="cls-8" d="M1368,767.54a7.07,7.07,0,0,1-6.17,4.58c-2.53,0-3.88-2-3-4.58A7.09,7.09,0,0,1,1365,763C1367.55,763,1368.9,765,1368,767.54Z" transform="translate(0)"/><path class="cls-14" d="M1283.75,776.47c-1.83-.79-16,1.79-20,2.55-12.81-2.51-54.93-10.93-57-13.57-2.42-3.11-7.7-97.89-13.74-99.47,0,0-11.9-7.23-23.4,6.48s8.17,111.68,25.22,116.71c18.93,5.59,73.62-.89,73.62-.89h0c4.49,1.54,12.34,2.4,16.52,3.79,5.5,1.84,10.39.31,11.61-1.83S1285.89,777.39,1283.75,776.47Z" transform="translate(0)"/><path class="cls-35" d="M1197.29,654.44s-24.43,2.21-31.53,10.24-9.17,29.81-9.17,29.81,21.52,17.37,47.44,10.63Z" transform="translate(0)"/><path class="cls-1" d="M1293.48,391.82S1267.63,506.06,1148.3,546.5c0,0,1.13,176.06,14.61,222.39s16.85,77.73,16.85,77.73H1148.3V391.82Z" transform="translate(0)"/><path class="cls-23" d="M1089,881v1.2H1545.5V881a34.41,34.41,0,0,0-34.41-34.41h-7.61V374.49H1131V846.62h-7.61A34.42,34.42,0,0,0,1089,881Zm397.21-405.72H1148.3V391.82h337.86Zm0,371.31H1148.3V494.8h337.86Z" transform="translate(0)"/><path class="cls-38" d="M1428.72,812.33s12,4.87,20.52-7.37C1449.24,805,1435.4,802.62,1428.72,812.33Z" transform="translate(0)"/><path class="cls-38" d="M1427.88,807.31a5.85,5.85,0,0,0-5.87-4.43S1423.9,807.22,1427.88,807.31Z" transform="translate(0)"/><path class="cls-38" d="M1430.41,782.22s5.81.62,8-5.75C1438.4,776.47,1432.1,777.17,1430.41,782.22Z" transform="translate(0)"/><path class="cls-38" d="M1444.21,698c-11.74-2.52-11.94-12.12-11.94-12.12C1446.09,690.22,1444.21,698,1444.21,698Z" transform="translate(0)"/><path class="cls-38" d="M1445,695.78s7.32,3,12.53-4.5C1457.54,691.28,1449.09,689.85,1445,695.78Z" transform="translate(0)"/><path class="cls-38" d="M1429,840.48l-1.52,1.74a.38.38,0,0,1-.66-.25c.08-49.4,6.36-93.3,11.63-119.2,5.75-28.26,11.58-45,11.64-45.14h0c-.06.17-5.32,17.15-11,45.33-5.28,25.94-11.32,59.85-9.79,116.85A1,1,0,0,1,1429,840.48Z" transform="translate(0)"/><path class="cls-11" d="M1449.94,670.9c-1.88,1.5-9,7.91-2.09,12.85,0,0,5.33,1.69,7.09-2.41a26.2,26.2,0,0,0,1.81-8.11.69.69,0,0,0-.65-.74,5.42,5.42,0,0,1-1.5-.35c-.66-.25-1-1.25-1.89-1.47a5.35,5.35,0,0,0-1.77-.19A1.83,1.83,0,0,0,1449.94,670.9Z" transform="translate(0)"/><path class="cls-38" d="M1446,682a4.29,4.29,0,0,1,1.33,4.41l0,1a4.77,4.77,0,0,1,3.17-3.29A5.63,5.63,0,0,1,1446,682Z" transform="translate(0)"/><path class="cls-39" d="M1444.21,698c-11.74-2.52-11.94-12.12-11.94-12.12S1441.57,691,1444.21,698Z" transform="translate(0)"/><path class="cls-38" d="M1432.93,691.39s-7.38,2.83-12.43-4.74C1420.5,686.65,1429,685.38,1432.93,691.39Z" transform="translate(0)"/><path class="cls-38" d="M1446.09,836.39l1.49,1.77a.38.38,0,0,0,.67-.24c.9-49.4-4.49-93.41-9.24-119.41-5.18-28.37-10.68-45.19-10.73-45.36h0c0,.16,5,17.25,10.14,45.54,4.75,26,10.11,60.06,7.44,117A1,1,0,0,0,1446.09,836.39Z" transform="translate(0)"/><path class="cls-11" d="M1428.51,666.42c1.84,1.54,8.88,8.09,1.83,12.89,0,0-5.36,1.59-7-2.55a26.29,26.29,0,0,1-1.64-8.14.71.71,0,0,1,.66-.74,5.85,5.85,0,0,0,1.52-.31c.66-.24,1-1.23,1.91-1.43a5.17,5.17,0,0,1,1.78-.16A1.83,1.83,0,0,1,1428.51,666.42Z" transform="translate(0)"/><path class="cls-38" d="M1432.27,677.56a4.31,4.31,0,0,0-1.43,4.39v1a4.74,4.74,0,0,0-3.1-3.35A5.67,5.67,0,0,0,1432.27,677.56Z" transform="translate(0)"/><path class="cls-38" d="M1436.06,682.74s7.8,1.3,11.25-7.12C1447.31,675.62,1438.75,676.06,1436.06,682.74Z" transform="translate(0)"/><path class="cls-38" d="M1451.94,827.46l-1.1,2a.38.38,0,0,1-.7-.1c-10.69-48.24-14.14-92.45-14.65-118.87-.55-28.84,1.5-46.42,1.52-46.6h0c0,.18-1.46,17.9-.9,46.65.51,26.47,2,60.88,15.93,116.18A1,1,0,0,1,1451.94,827.46Z" transform="translate(0)"/><path class="cls-11" d="M1435.44,657.38c-1.5,1.88-7.09,9.7.77,13,0,0,5.57.48,6.39-3.91a25.8,25.8,0,0,0,0-8.3.7.7,0,0,0-.79-.59,5.75,5.75,0,0,1-1.55,0c-.7-.1-1.24-1-2.16-1a5.58,5.58,0,0,0-1.78.19A2,2,0,0,0,1435.44,657.38Z" transform="translate(0)"/><path class="cls-38" d="M1434,669.05a4.32,4.32,0,0,1,2.27,4l.2,1a4.74,4.74,0,0,1,2.37-3.9A5.65,5.65,0,0,1,1434,669.05Z" transform="translate(0)"/><path class="cls-38" d="M1442.49,674.06s0-6.17,5.32-8.11C1447.81,666,1449,671.1,1442.49,674.06Z" transform="translate(0)"/><path class="cls-40" d="M1430,664.14s.16-4.7-4.19-6.06C1425.81,658.08,1424.76,662.46,1430,664.14Z" transform="translate(0)"/><path class="cls-40" d="M1444.29,692.47c.16.14,2.28-4.58-2-8.37C1442.27,684.1,1440.47,689.15,1444.29,692.47Z" transform="translate(0)"/><path class="cls-38" d="M1447.31,692.1a2.53,2.53,0,0,1,2.2-2.68S1449.89,691.4,1447.31,692.1Z" transform="translate(0)"/><path class="cls-38" d="M1425,684.1s-1.88-3.9-7.92-3.23C1417.11,680.87,1418,685.06,1425,684.1Z" transform="translate(0)"/><path class="cls-11" d="M1458.39,846.26H1419.7a4.26,4.26,0,0,1-4.22-4.87l18-124.11a2.36,2.36,0,0,1,2.33-2h5.75a2.53,2.53,0,0,1,2.49,2.14l18.43,124.1A4.15,4.15,0,0,1,1458.39,846.26Z" transform="translate(0)"/><path class="cls-41" d="M1428.27,842.51l9.56-127.21a2.34,2.34,0,0,0-2,2l-18,124.11a4.26,4.26,0,0,0,4.22,4.87h7.73A4.56,4.56,0,0,1,1428.27,842.51Z" transform="translate(0)"/><path class="cls-42" d="M2485.82,1128.53h-8.13l.07-.64,2.46-21.67a1.37,1.37,0,0,1,1.37-1.22h.26a2.26,2.26,0,0,1,1.2.55,2.13,2.13,0,0,1,.7,1.4Z" transform="translate(0)"/><path class="cls-8" d="M2478.48,1123.61h-.29l2-17.4a1.37,1.37,0,0,1,1.37-1.22h.26a1.39,1.39,0,0,1,.21.21,2.1,2.1,0,0,1,.58,1.45l.12,12.51A4.39,4.39,0,0,1,2478.48,1123.61Z" transform="translate(0)"/><rect class="cls-42" x="2475.33" y="1224.96" width="15.67" height="691.79"/><rect class="cls-8" x="2475.33" y="1224.96" width="7.23" height="691.79"/><rect class="cls-42" x="2458.21" y="1806.35" width="49.9" height="183.04"/><rect class="cls-8" x="2458.21" y="1806.35" width="29.74" height="183.04"/><path class="cls-42" d="M2510.43,1139c0,8.55-12.84,15.48-28.67,15.48-1.21,0-2.4,0-3.57-.13-14.15-.94-25.11-7.46-25.11-15.35s11-14.4,25.11-15.35q1.76-.12,3.57-.12C2497.59,1123.5,2510.43,1130.43,2510.43,1139Z" transform="translate(0)"/><path class="cls-8" d="M2495.59,1139c0,6.89-7.17,12.8-17.4,15.35-14.15-.94-25.11-7.46-25.11-15.35s11-14.4,25.11-15.35C2488.42,1126.17,2495.59,1132.08,2495.59,1139Z" transform="translate(0)"/><polygon class="cls-8" points="2508.05 1238.61 2458.15 1238.61 2440.56 1153.9 2522.95 1153.9 2508.05 1238.61"/><rect class="cls-42" x="2436.11" y="1147.51" width="91.29" height="8.12"/><rect class="cls-8" x="2436.11" y="1147.51" width="57.39" height="8.12"/><path class="cls-42" d="M2466.38,1806.35h31.89l-4.67-14.15a3.05,3.05,0,0,0-2.9-2.1h-14.94a4,4,0,0,0-3.7,2.47Z" transform="translate(0)"/><polygon class="cls-43" points="2446.46 1158.03 2516.82 1158.03 2503.08 1234.16 2462.67 1234.16 2446.46 1158.03"/><path class="cls-43" d="M2455,1139.88s5.36-11.71,15.94-11.35c0,0-6.73,6-6.12,11.35S2455,1139.88,2455,1139.88Z" transform="translate(0)"/><polygon class="cls-42" points="2521.57 1147.51 2441.94 1147.51 2448.46 1138.23 2515.38 1138.23 2521.57 1147.51"/><polygon class="cls-8" points="2501.96 1147.51 2441.94 1147.51 2448.46 1138.23 2495.77 1138.23 2501.96 1147.51"/><polygon class="cls-44" points="2451.13 1160.68 2467.26 1160.68 2471.95 1231.78 2467.26 1231.78 2451.13 1160.68"/><path class="cls-3" d="M809.84,614.43,425,741.4a776.25,776.25,0,0,1,64.78-66.74Z" transform="translate(0)"/><path class="cls-45" d="M784.79,705.12a25,25,0,1,1,25.05,25A25.05,25.05,0,0,1,784.79,705.12Z" transform="translate(0)"/><rect class="cls-8" x="866.46" y="83.72" width="1452.61" height="99.43" transform="translate(-3.77 57.44) rotate(-2.06)"/><rect class="cls-8" x="1103.73" y="264.13" width="428.02" height="91.52"/><rect class="cls-8" x="1668.47" y="264.13" width="428.02" height="91.52"/><rect class="cls-8" x="1103.73" y="1068.71" width="428.02" height="91.52"/><rect class="cls-8" x="1668.47" y="1068.71" width="428.02" height="91.52"/></svg>